999
DXF file created by HALCON
  0
SECTION
  2
HEADER
  9
$ACADVER
  1
AC1009
  0
ENDSEC
  0
SECTION
  2
TABLES
  0
TABLE
  2
LTYPE
 70
1
  0
LTYPE
  2
CONTINUOUS
 70
0
  3
Solid line
 72
65
 73
0
 40
0
  0
ENDTAB
  0
TABLE
  2
LAYER
 70
1
  0
LAYER
  2
0
 70
0
 62
7
  6
CONTINUOUS
  0
ENDTAB
  0
TABLE
  2
APPID
 70
2
  0
APPID
  2
ACAD
 70
64
  0
APPID
  2
HALCON
 70
64
  0
ENDTAB
  0
ENDSEC
  0
SECTION
  2
BLOCKS
  0
ENDSEC
  0
SECTION
  2
ENTITIES
  0
POLYLINE
  8
0
 66
1
 10
0.0
 20
0.0
 30
0.0
 70
0
  0
VERTEX
  8
0
 10
693.5
 20
535.5
 30
0.0
  0
VERTEX
  8
0
 10
693.5
 20
536.5
 30
0.0
  0
VERTEX
  8
0
 10
693.5
 20
537.5
 30
0.0
  0
VERTEX
  8
0
 10
693.5
 20
538.5
 30
0.0
  0
VERTEX
  8
0
 10
693.5
 20
539.5
 30
0.0
  0
VERTEX
  8
0
 10
693.5
 20
540.5
 30
0.0
  0
VERTEX
  8
0
 10
693.5
 20
541.5
 30
0.0
  0
VERTEX
  8
0
 10
693.5
 20
542.5
 30
0.0
  0
VERTEX
  8
0
 10
693.5
 20
543.5
 30
0.0
  0
VERTEX
  8
0
 10
693.5
 20
544.5
 30
0.0
  0
VERTEX
  8
0
 10
693.5
 20
545.5
 30
0.0
  0
VERTEX
  8
0
 10
693.5
 20
546.5
 30
0.0
  0
VERTEX
  8
0
 10
693.5
 20
547.5
 30
0.0
  0
VERTEX
  8
0
 10
693.5
 20
548.5
 30
0.0
  0
VERTEX
  8
0
 10
693.5
 20
549.5
 30
0.0
  0
VERTEX
  8
0
 10
693.5
 20
550.5
 30
0.0
  0
VERTEX
  8
0
 10
693.5
 20
551.5
 30
0.0
  0
VERTEX
  8
0
 10
693.5
 20
552.5
 30
0.0
  0
VERTEX
  8
0
 10
693.5
 20
553.5
 30
0.0
  0
VERTEX
  8
0
 10
693.5
 20
554.5
 30
0.0
  0
VERTEX
  8
0
 10
693.5
 20
555.5
 30
0.0
  0
VERTEX
  8
0
 10
693.5
 20
556.5
 30
0.0
  0
VERTEX
  8
0
 10
693.5
 20
557.5
 30
0.0
  0
VERTEX
  8
0
 10
693.5
 20
558.5
 30
0.0
  0
VERTEX
  8
0
 10
693.5
 20
559.5
 30
0.0
  0
VERTEX
  8
0
 10
693.5
 20
560.5
 30
0.0
  0
VERTEX
  8
0
 10
693.5
 20
561.5
 30
0.0
  0
VERTEX
  8
0
 10
693.5
 20
562.5
 30
0.0
  0
VERTEX
  8
0
 10
693.5
 20
563.5
 30
0.0
  0
VERTEX
  8
0
 10
693.5
 20
564.5
 30
0.0
  0
VERTEX
  8
0
 10
693.5
 20
565.5
 30
0.0
  0
VERTEX
  8
0
 10
693.5
 20
566.5
 30
0.0
  0
VERTEX
  8
0
 10
693.5
 20
567.5
 30
0.0
  0
VERTEX
  8
0
 10
693.5
 20
568.5
 30
0.0
  0
VERTEX
  8
0
 10
693.5
 20
569.5
 30
0.0
  0
VERTEX
  8
0
 10
693.5
 20
570.5
 30
0.0
  0
VERTEX
  8
0
 10
693.5
 20
571.5
 30
0.0
  0
VERTEX
  8
0
 10
693.5
 20
572.5
 30
0.0
  0
VERTEX
  8
0
 10
693.5
 20
573.5
 30
0.0
  0
VERTEX
  8
0
 10
693.5
 20
574.5
 30
0.0
  0
VERTEX
  8
0
 10
693.5
 20
575.5
 30
0.0
  0
VERTEX
  8
0
 10
693.5
 20
576.5
 30
0.0
  0
VERTEX
  8
0
 10
693.5
 20
577.5
 30
0.0
  0
VERTEX
  8
0
 10
693.5
 20
578.5
 30
0.0
  0
VERTEX
  8
0
 10
693.5
 20
579.5
 30
0.0
  0
VERTEX
  8
0
 10
693.5
 20
580.5
 30
0.0
  0
VERTEX
  8
0
 10
693.5
 20
581.5
 30
0.0
  0
VERTEX
  8
0
 10
693.5
 20
582.5
 30
0.0
  0
VERTEX
  8
0
 10
693.5
 20
583.5
 30
0.0
  0
VERTEX
  8
0
 10
693.5
 20
584.5
 30
0.0
  0
VERTEX
  8
0
 10
693.5
 20
585.5
 30
0.0
  0
VERTEX
  8
0
 10
693.5
 20
586.5
 30
0.0
  0
VERTEX
  8
0
 10
693.5
 20
587.5
 30
0.0
  0
VERTEX
  8
0
 10
693.5
 20
588.5
 30
0.0
  0
VERTEX
  8
0
 10
693.5
 20
589.5
 30
0.0
  0
VERTEX
  8
0
 10
693.5
 20
590.5
 30
0.0
  0
VERTEX
  8
0
 10
693.5
 20
591.5
 30
0.0
  0
VERTEX
  8
0
 10
693.5
 20
592.5
 30
0.0
  0
VERTEX
  8
0
 10
693.5
 20
593.5
 30
0.0
  0
VERTEX
  8
0
 10
693.5
 20
594.5
 30
0.0
  0
VERTEX
  8
0
 10
693.5
 20
595.5
 30
0.0
  0
VERTEX
  8
0
 10
693.5
 20
596.5
 30
0.0
  0
VERTEX
  8
0
 10
693.5
 20
597.5
 30
0.0
  0
VERTEX
  8
0
 10
693.5
 20
598.5
 30
0.0
  0
VERTEX
  8
0
 10
693.5
 20
599.5
 30
0.0
  0
VERTEX
  8
0
 10
693.5
 20
600.5
 30
0.0
  0
VERTEX
  8
0
 10
693.5
 20
601.5
 30
0.0
  0
VERTEX
  8
0
 10
693.5
 20
602.5
 30
0.0
  0
VERTEX
  8
0
 10
693.5
 20
603.5
 30
0.0
  0
VERTEX
  8
0
 10
693.5
 20
604.5
 30
0.0
  0
VERTEX
  8
0
 10
693.5
 20
605.5
 30
0.0
  0
VERTEX
  8
0
 10
693.5
 20
606.5
 30
0.0
  0
VERTEX
  8
0
 10
693.5
 20
607.5
 30
0.0
  0
VERTEX
  8
0
 10
693.5
 20
608.5
 30
0.0
  0
VERTEX
  8
0
 10
693.5
 20
609.5
 30
0.0
  0
VERTEX
  8
0
 10
693.5
 20
610.5
 30
0.0
  0
VERTEX
  8
0
 10
693.5
 20
611.5
 30
0.0
  0
VERTEX
  8
0
 10
693.5
 20
612.5
 30
0.0
  0
VERTEX
  8
0
 10
693.5
 20
613.5
 30
0.0
  0
VERTEX
  8
0
 10
693.5
 20
614.5
 30
0.0
  0
VERTEX
  8
0
 10
693.5
 20
615.5
 30
0.0
  0
VERTEX
  8
0
 10
693.5
 20
616.5
 30
0.0
  0
VERTEX
  8
0
 10
693.5
 20
617.5
 30
0.0
  0
VERTEX
  8
0
 10
693.5
 20
618.5
 30
0.0
  0
VERTEX
  8
0
 10
693.5
 20
619.5
 30
0.0
  0
VERTEX
  8
0
 10
693.5
 20
620.5
 30
0.0
  0
VERTEX
  8
0
 10
693.5
 20
621.5
 30
0.0
  0
VERTEX
  8
0
 10
693.5
 20
622.5
 30
0.0
  0
VERTEX
  8
0
 10
693.5
 20
623.5
 30
0.0
  0
VERTEX
  8
0
 10
693.5
 20
624.5
 30
0.0
  0
VERTEX
  8
0
 10
693.5
 20
625.5
 30
0.0
  0
VERTEX
  8
0
 10
693.5
 20
626.5
 30
0.0
  0
VERTEX
  8
0
 10
693.5
 20
627.5
 30
0.0
  0
VERTEX
  8
0
 10
693.5
 20
628.5
 30
0.0
  0
VERTEX
  8
0
 10
693.5
 20
629.5
 30
0.0
  0
VERTEX
  8
0
 10
693.5
 20
630.5
 30
0.0
  0
VERTEX
  8
0
 10
693.5
 20
631.5
 30
0.0
  0
VERTEX
  8
0
 10
693.5
 20
632.5
 30
0.0
  0
VERTEX
  8
0
 10
693.5
 20
633.5
 30
0.0
  0
VERTEX
  8
0
 10
693.5
 20
634.5
 30
0.0
  0
VERTEX
  8
0
 10
693.5
 20
635.5
 30
0.0
  0
VERTEX
  8
0
 10
693.5
 20
636.5
 30
0.0
  0
VERTEX
  8
0
 10
693.5
 20
637.5
 30
0.0
  0
VERTEX
  8
0
 10
693.5
 20
638.5
 30
0.0
  0
VERTEX
  8
0
 10
693.5
 20
639.5
 30
0.0
  0
VERTEX
  8
0
 10
693.5
 20
640.5
 30
0.0
  0
VERTEX
  8
0
 10
693.5
 20
641.5
 30
0.0
  0
VERTEX
  8
0
 10
693.5
 20
642.5
 30
0.0
  0
VERTEX
  8
0
 10
693.5
 20
643.5
 30
0.0
  0
VERTEX
  8
0
 10
693.5
 20
644.5
 30
0.0
  0
VERTEX
  8
0
 10
693.5
 20
645.5
 30
0.0
  0
VERTEX
  8
0
 10
693.5
 20
646.5
 30
0.0
  0
VERTEX
  8
0
 10
693.5
 20
647.5
 30
0.0
  0
VERTEX
  8
0
 10
693.5
 20
648.5
 30
0.0
  0
VERTEX
  8
0
 10
693.5
 20
649.5
 30
0.0
  0
VERTEX
  8
0
 10
693.5
 20
650.5
 30
0.0
  0
VERTEX
  8
0
 10
693.5
 20
651.5
 30
0.0
  0
VERTEX
  8
0
 10
693.5
 20
652.5
 30
0.0
  0
VERTEX
  8
0
 10
693.5
 20
653.5
 30
0.0
  0
VERTEX
  8
0
 10
693.5
 20
654.5
 30
0.0
  0
VERTEX
  8
0
 10
693.5
 20
655.5
 30
0.0
  0
VERTEX
  8
0
 10
693.5
 20
656.5
 30
0.0
  0
VERTEX
  8
0
 10
693.5
 20
657.5
 30
0.0
  0
VERTEX
  8
0
 10
693.5
 20
658.5
 30
0.0
  0
VERTEX
  8
0
 10
693.5
 20
659.5
 30
0.0
  0
VERTEX
  8
0
 10
693.5
 20
660.5
 30
0.0
  0
VERTEX
  8
0
 10
693.5
 20
661.5
 30
0.0
  0
VERTEX
  8
0
 10
693.5
 20
662.5
 30
0.0
  0
VERTEX
  8
0
 10
693.5
 20
663.5
 30
0.0
  0
VERTEX
  8
0
 10
693.5
 20
664.5
 30
0.0
  0
VERTEX
  8
0
 10
693.5
 20
665.5
 30
0.0
  0
VERTEX
  8
0
 10
693.5
 20
666.5
 30
0.0
  0
VERTEX
  8
0
 10
693.5
 20
667.5
 30
0.0
  0
VERTEX
  8
0
 10
693.5
 20
668.5
 30
0.0
  0
VERTEX
  8
0
 10
693.5
 20
669.5
 30
0.0
  0
VERTEX
  8
0
 10
693.5
 20
670.5
 30
0.0
  0
VERTEX
  8
0
 10
693.5
 20
671.5
 30
0.0
  0
VERTEX
  8
0
 10
693.5
 20
672.5
 30
0.0
  0
VERTEX
  8
0
 10
693.5
 20
673.5
 30
0.0
  0
VERTEX
  8
0
 10
693.5
 20
674.5
 30
0.0
  0
VERTEX
  8
0
 10
693.5
 20
675.5
 30
0.0
  0
VERTEX
  8
0
 10
693.5
 20
676.5
 30
0.0
  0
VERTEX
  8
0
 10
693.5
 20
677.5
 30
0.0
  0
VERTEX
  8
0
 10
693.5
 20
678.5
 30
0.0
  0
VERTEX
  8
0
 10
693.5
 20
679.5
 30
0.0
  0
VERTEX
  8
0
 10
693.5
 20
680.5
 30
0.0
  0
VERTEX
  8
0
 10
693.5
 20
681.5
 30
0.0
  0
VERTEX
  8
0
 10
693.5
 20
682.5
 30
0.0
  0
VERTEX
  8
0
 10
693.5
 20
683.5
 30
0.0
  0
VERTEX
  8
0
 10
693.5
 20
684.5
 30
0.0
  0
VERTEX
  8
0
 10
693.5
 20
685.5
 30
0.0
  0
VERTEX
  8
0
 10
693.5
 20
686.5
 30
0.0
  0
VERTEX
  8
0
 10
693.5
 20
687.5
 30
0.0
  0
VERTEX
  8
0
 10
693.5
 20
688.5
 30
0.0
  0
VERTEX
  8
0
 10
693.5
 20
689.5
 30
0.0
  0
VERTEX
  8
0
 10
693.5
 20
690.5
 30
0.0
  0
VERTEX
  8
0
 10
693.5
 20
691.5
 30
0.0
  0
VERTEX
  8
0
 10
693.5
 20
692.5
 30
0.0
  0
VERTEX
  8
0
 10
693.5
 20
693.5
 30
0.0
  0
VERTEX
  8
0
 10
693.5
 20
694.5
 30
0.0
  0
VERTEX
  8
0
 10
693.5
 20
695.5
 30
0.0
  0
VERTEX
  8
0
 10
693.5
 20
696.5
 30
0.0
  0
VERTEX
  8
0
 10
693.5
 20
697.5
 30
0.0
  0
VERTEX
  8
0
 10
693.5
 20
698.5
 30
0.0
  0
VERTEX
  8
0
 10
693.5
 20
699.5
 30
0.0
  0
VERTEX
  8
0
 10
693.5
 20
700.5
 30
0.0
  0
VERTEX
  8
0
 10
693.5
 20
701.5
 30
0.0
  0
VERTEX
  8
0
 10
693.5
 20
702.5
 30
0.0
  0
VERTEX
  8
0
 10
693.5
 20
703.5
 30
0.0
  0
VERTEX
  8
0
 10
693.5
 20
704.5
 30
0.0
  0
VERTEX
  8
0
 10
693.5
 20
705.5
 30
0.0
  0
VERTEX
  8
0
 10
693.5
 20
706.5
 30
0.0
  0
VERTEX
  8
0
 10
693.5
 20
707.5
 30
0.0
  0
VERTEX
  8
0
 10
693.5
 20
708.5
 30
0.0
  0
VERTEX
  8
0
 10
693.5
 20
709.5
 30
0.0
  0
VERTEX
  8
0
 10
693.5
 20
710.5
 30
0.0
  0
VERTEX
  8
0
 10
693.5
 20
711.5
 30
0.0
  0
VERTEX
  8
0
 10
693.5
 20
712.5
 30
0.0
  0
VERTEX
  8
0
 10
693.5
 20
713.5
 30
0.0
  0
VERTEX
  8
0
 10
693.5
 20
714.5
 30
0.0
  0
VERTEX
  8
0
 10
693.5
 20
715.5
 30
0.0
  0
VERTEX
  8
0
 10
693.5
 20
716.5
 30
0.0
  0
VERTEX
  8
0
 10
693.5
 20
717.5
 30
0.0
  0
VERTEX
  8
0
 10
693.5
 20
718.5
 30
0.0
  0
VERTEX
  8
0
 10
693.5
 20
719.5
 30
0.0
  0
VERTEX
  8
0
 10
692.5
 20
719.5
 30
0.0
  0
VERTEX
  8
0
 10
691.5
 20
719.5
 30
0.0
  0
VERTEX
  8
0
 10
690.5
 20
719.5
 30
0.0
  0
VERTEX
  8
0
 10
689.5
 20
719.5
 30
0.0
  0
VERTEX
  8
0
 10
688.5
 20
719.5
 30
0.0
  0
VERTEX
  8
0
 10
687.5
 20
719.5
 30
0.0
  0
VERTEX
  8
0
 10
686.5
 20
719.5
 30
0.0
  0
VERTEX
  8
0
 10
685.5
 20
719.5
 30
0.0
  0
VERTEX
  8
0
 10
684.5
 20
719.5
 30
0.0
  0
VERTEX
  8
0
 10
683.5
 20
719.5
 30
0.0
  0
VERTEX
  8
0
 10
682.5
 20
719.5
 30
0.0
  0
VERTEX
  8
0
 10
681.5
 20
719.5
 30
0.0
  0
VERTEX
  8
0
 10
680.5
 20
719.5
 30
0.0
  0
VERTEX
  8
0
 10
679.5
 20
719.5
 30
0.0
  0
VERTEX
  8
0
 10
678.5
 20
719.5
 30
0.0
  0
VERTEX
  8
0
 10
677.5
 20
719.5
 30
0.0
  0
VERTEX
  8
0
 10
676.5
 20
719.5
 30
0.0
  0
VERTEX
  8
0
 10
675.5
 20
719.5
 30
0.0
  0
VERTEX
  8
0
 10
674.5
 20
719.5
 30
0.0
  0
VERTEX
  8
0
 10
673.5
 20
719.5
 30
0.0
  0
VERTEX
  8
0
 10
672.5
 20
719.5
 30
0.0
  0
VERTEX
  8
0
 10
671.5
 20
719.5
 30
0.0
  0
VERTEX
  8
0
 10
670.5
 20
719.5
 30
0.0
  0
VERTEX
  8
0
 10
669.5
 20
719.5
 30
0.0
  0
VERTEX
  8
0
 10
668.5
 20
719.5
 30
0.0
  0
VERTEX
  8
0
 10
667.5
 20
719.5
 30
0.0
  0
VERTEX
  8
0
 10
666.5
 20
719.5
 30
0.0
  0
VERTEX
  8
0
 10
665.5
 20
719.5
 30
0.0
  0
VERTEX
  8
0
 10
664.5
 20
719.5
 30
0.0
  0
VERTEX
  8
0
 10
663.5
 20
719.5
 30
0.0
  0
VERTEX
  8
0
 10
662.5
 20
719.5
 30
0.0
  0
VERTEX
  8
0
 10
661.5
 20
719.5
 30
0.0
  0
VERTEX
  8
0
 10
660.5
 20
719.5
 30
0.0
  0
VERTEX
  8
0
 10
659.5
 20
719.5
 30
0.0
  0
VERTEX
  8
0
 10
658.5
 20
719.5
 30
0.0
  0
VERTEX
  8
0
 10
657.5
 20
719.5
 30
0.0
  0
VERTEX
  8
0
 10
656.5
 20
719.5
 30
0.0
  0
VERTEX
  8
0
 10
655.5
 20
719.5
 30
0.0
  0
VERTEX
  8
0
 10
654.5
 20
719.5
 30
0.0
  0
VERTEX
  8
0
 10
653.5
 20
719.5
 30
0.0
  0
VERTEX
  8
0
 10
652.5
 20
719.5
 30
0.0
  0
VERTEX
  8
0
 10
651.5
 20
719.5
 30
0.0
  0
VERTEX
  8
0
 10
650.5
 20
719.5
 30
0.0
  0
VERTEX
  8
0
 10
649.5
 20
719.5
 30
0.0
  0
VERTEX
  8
0
 10
648.5
 20
719.5
 30
0.0
  0
VERTEX
  8
0
 10
647.5
 20
719.5
 30
0.0
  0
VERTEX
  8
0
 10
646.5
 20
719.5
 30
0.0
  0
VERTEX
  8
0
 10
645.5
 20
719.5
 30
0.0
  0
VERTEX
  8
0
 10
644.5
 20
719.5
 30
0.0
  0
VERTEX
  8
0
 10
643.5
 20
719.5
 30
0.0
  0
VERTEX
  8
0
 10
642.5
 20
719.5
 30
0.0
  0
VERTEX
  8
0
 10
641.5
 20
719.5
 30
0.0
  0
VERTEX
  8
0
 10
640.5
 20
719.5
 30
0.0
  0
VERTEX
  8
0
 10
639.5
 20
719.5
 30
0.0
  0
VERTEX
  8
0
 10
638.5
 20
719.5
 30
0.0
  0
VERTEX
  8
0
 10
637.5
 20
719.5
 30
0.0
  0
VERTEX
  8
0
 10
636.5
 20
719.5
 30
0.0
  0
VERTEX
  8
0
 10
635.5
 20
719.5
 30
0.0
  0
VERTEX
  8
0
 10
634.5
 20
719.5
 30
0.0
  0
VERTEX
  8
0
 10
633.5
 20
719.5
 30
0.0
  0
VERTEX
  8
0
 10
632.5
 20
719.5
 30
0.0
  0
VERTEX
  8
0
 10
631.5
 20
719.5
 30
0.0
  0
VERTEX
  8
0
 10
630.5
 20
719.5
 30
0.0
  0
VERTEX
  8
0
 10
629.5
 20
719.5
 30
0.0
  0
VERTEX
  8
0
 10
628.5
 20
719.5
 30
0.0
  0
VERTEX
  8
0
 10
627.5
 20
719.5
 30
0.0
  0
VERTEX
  8
0
 10
626.5
 20
719.5
 30
0.0
  0
VERTEX
  8
0
 10
625.5
 20
719.5
 30
0.0
  0
VERTEX
  8
0
 10
624.5
 20
719.5
 30
0.0
  0
VERTEX
  8
0
 10
623.5
 20
719.5
 30
0.0
  0
VERTEX
  8
0
 10
622.5
 20
719.5
 30
0.0
  0
VERTEX
  8
0
 10
621.5
 20
719.5
 30
0.0
  0
VERTEX
  8
0
 10
620.5
 20
719.5
 30
0.0
  0
VERTEX
  8
0
 10
619.5
 20
719.5
 30
0.0
  0
VERTEX
  8
0
 10
618.5
 20
719.5
 30
0.0
  0
VERTEX
  8
0
 10
617.5
 20
719.5
 30
0.0
  0
VERTEX
  8
0
 10
616.5
 20
719.5
 30
0.0
  0
VERTEX
  8
0
 10
615.5
 20
719.5
 30
0.0
  0
VERTEX
  8
0
 10
614.5
 20
719.5
 30
0.0
  0
VERTEX
  8
0
 10
613.5
 20
719.5
 30
0.0
  0
VERTEX
  8
0
 10
612.5
 20
719.5
 30
0.0
  0
VERTEX
  8
0
 10
611.5
 20
719.5
 30
0.0
  0
VERTEX
  8
0
 10
610.5
 20
719.5
 30
0.0
  0
VERTEX
  8
0
 10
609.5
 20
719.5
 30
0.0
  0
VERTEX
  8
0
 10
608.5
 20
719.5
 30
0.0
  0
VERTEX
  8
0
 10
607.5
 20
719.5
 30
0.0
  0
VERTEX
  8
0
 10
606.5
 20
719.5
 30
0.0
  0
VERTEX
  8
0
 10
605.5
 20
719.5
 30
0.0
  0
VERTEX
  8
0
 10
604.5
 20
719.5
 30
0.0
  0
VERTEX
  8
0
 10
603.5
 20
719.5
 30
0.0
  0
VERTEX
  8
0
 10
602.5
 20
719.5
 30
0.0
  0
VERTEX
  8
0
 10
601.5
 20
719.5
 30
0.0
  0
VERTEX
  8
0
 10
600.5
 20
719.5
 30
0.0
  0
VERTEX
  8
0
 10
599.5
 20
719.5
 30
0.0
  0
VERTEX
  8
0
 10
598.5
 20
719.5
 30
0.0
  0
VERTEX
  8
0
 10
597.5
 20
719.5
 30
0.0
  0
VERTEX
  8
0
 10
596.5
 20
719.5
 30
0.0
  0
VERTEX
  8
0
 10
595.5
 20
719.5
 30
0.0
  0
VERTEX
  8
0
 10
594.5
 20
719.5
 30
0.0
  0
VERTEX
  8
0
 10
593.5
 20
719.5
 30
0.0
  0
VERTEX
  8
0
 10
592.5
 20
719.5
 30
0.0
  0
VERTEX
  8
0
 10
591.5
 20
719.5
 30
0.0
  0
VERTEX
  8
0
 10
590.5
 20
719.5
 30
0.0
  0
VERTEX
  8
0
 10
589.5
 20
719.5
 30
0.0
  0
VERTEX
  8
0
 10
588.5
 20
719.5
 30
0.0
  0
VERTEX
  8
0
 10
587.5
 20
719.5
 30
0.0
  0
VERTEX
  8
0
 10
586.5
 20
719.5
 30
0.0
  0
VERTEX
  8
0
 10
585.5
 20
719.5
 30
0.0
  0
VERTEX
  8
0
 10
585.5
 20
718.5
 30
0.0
  0
VERTEX
  8
0
 10
585.5
 20
717.5
 30
0.0
  0
VERTEX
  8
0
 10
585.5
 20
716.5
 30
0.0
  0
VERTEX
  8
0
 10
585.5
 20
715.5
 30
0.0
  0
VERTEX
  8
0
 10
585.5
 20
714.5
 30
0.0
  0
VERTEX
  8
0
 10
585.5
 20
713.5
 30
0.0
  0
VERTEX
  8
0
 10
585.5
 20
712.5
 30
0.0
  0
VERTEX
  8
0
 10
585.5
 20
711.5
 30
0.0
  0
VERTEX
  8
0
 10
585.5
 20
710.5
 30
0.0
  0
VERTEX
  8
0
 10
585.5
 20
709.5
 30
0.0
  0
VERTEX
  8
0
 10
585.5
 20
708.5
 30
0.0
  0
VERTEX
  8
0
 10
585.5
 20
707.5
 30
0.0
  0
VERTEX
  8
0
 10
585.5
 20
706.5
 30
0.0
  0
VERTEX
  8
0
 10
585.5
 20
705.5
 30
0.0
  0
VERTEX
  8
0
 10
585.5
 20
704.5
 30
0.0
  0
VERTEX
  8
0
 10
585.5
 20
703.5
 30
0.0
  0
VERTEX
  8
0
 10
585.5
 20
702.5
 30
0.0
  0
VERTEX
  8
0
 10
585.5
 20
701.5
 30
0.0
  0
VERTEX
  8
0
 10
585.5
 20
700.5
 30
0.0
  0
VERTEX
  8
0
 10
585.5
 20
699.5
 30
0.0
  0
VERTEX
  8
0
 10
585.5
 20
698.5
 30
0.0
  0
VERTEX
  8
0
 10
585.5
 20
697.5
 30
0.0
  0
VERTEX
  8
0
 10
585.5
 20
696.5
 30
0.0
  0
VERTEX
  8
0
 10
585.5
 20
695.5
 30
0.0
  0
VERTEX
  8
0
 10
585.5
 20
694.5
 30
0.0
  0
VERTEX
  8
0
 10
585.5
 20
693.5
 30
0.0
  0
VERTEX
  8
0
 10
585.5
 20
692.5
 30
0.0
  0
VERTEX
  8
0
 10
585.5
 20
691.5
 30
0.0
  0
VERTEX
  8
0
 10
585.5
 20
690.5
 30
0.0
  0
VERTEX
  8
0
 10
585.5
 20
689.5
 30
0.0
  0
VERTEX
  8
0
 10
585.5
 20
688.5
 30
0.0
  0
VERTEX
  8
0
 10
585.5
 20
687.5
 30
0.0
  0
VERTEX
  8
0
 10
585.5
 20
686.5
 30
0.0
  0
VERTEX
  8
0
 10
585.5
 20
685.5
 30
0.0
  0
VERTEX
  8
0
 10
585.5
 20
684.5
 30
0.0
  0
VERTEX
  8
0
 10
585.5
 20
683.5
 30
0.0
  0
VERTEX
  8
0
 10
585.5
 20
682.5
 30
0.0
  0
VERTEX
  8
0
 10
585.5
 20
681.5
 30
0.0
  0
VERTEX
  8
0
 10
585.5
 20
680.5
 30
0.0
  0
VERTEX
  8
0
 10
585.5
 20
679.5
 30
0.0
  0
VERTEX
  8
0
 10
585.5
 20
678.5
 30
0.0
  0
VERTEX
  8
0
 10
585.5
 20
677.5
 30
0.0
  0
VERTEX
  8
0
 10
585.5
 20
676.5
 30
0.0
  0
VERTEX
  8
0
 10
585.5
 20
675.5
 30
0.0
  0
VERTEX
  8
0
 10
585.5
 20
674.5
 30
0.0
  0
VERTEX
  8
0
 10
585.5
 20
673.5
 30
0.0
  0
VERTEX
  8
0
 10
585.5
 20
672.5
 30
0.0
  0
VERTEX
  8
0
 10
585.5
 20
671.5
 30
0.0
  0
VERTEX
  8
0
 10
585.5
 20
670.5
 30
0.0
  0
VERTEX
  8
0
 10
585.5
 20
669.5
 30
0.0
  0
VERTEX
  8
0
 10
585.5
 20
668.5
 30
0.0
  0
VERTEX
  8
0
 10
585.5
 20
667.5
 30
0.0
  0
VERTEX
  8
0
 10
585.5
 20
666.5
 30
0.0
  0
VERTEX
  8
0
 10
585.5
 20
665.5
 30
0.0
  0
VERTEX
  8
0
 10
585.5
 20
664.5
 30
0.0
  0
VERTEX
  8
0
 10
585.5
 20
663.5
 30
0.0
  0
VERTEX
  8
0
 10
585.5
 20
662.5
 30
0.0
  0
VERTEX
  8
0
 10
585.5
 20
661.5
 30
0.0
  0
VERTEX
  8
0
 10
585.5
 20
660.5
 30
0.0
  0
VERTEX
  8
0
 10
585.5
 20
659.5
 30
0.0
  0
VERTEX
  8
0
 10
585.5
 20
658.5
 30
0.0
  0
VERTEX
  8
0
 10
585.5
 20
657.5
 30
0.0
  0
VERTEX
  8
0
 10
585.5
 20
656.5
 30
0.0
  0
VERTEX
  8
0
 10
585.5
 20
655.5
 30
0.0
  0
VERTEX
  8
0
 10
585.5
 20
654.5
 30
0.0
  0
VERTEX
  8
0
 10
585.5
 20
653.5
 30
0.0
  0
VERTEX
  8
0
 10
585.5
 20
652.5
 30
0.0
  0
VERTEX
  8
0
 10
585.5
 20
651.5
 30
0.0
  0
VERTEX
  8
0
 10
585.5
 20
650.5
 30
0.0
  0
VERTEX
  8
0
 10
585.5
 20
649.5
 30
0.0
  0
VERTEX
  8
0
 10
585.5
 20
648.5
 30
0.0
  0
VERTEX
  8
0
 10
585.5
 20
647.5
 30
0.0
  0
VERTEX
  8
0
 10
585.5
 20
646.5
 30
0.0
  0
VERTEX
  8
0
 10
585.5
 20
645.5
 30
0.0
  0
VERTEX
  8
0
 10
585.5
 20
644.5
 30
0.0
  0
VERTEX
  8
0
 10
585.5
 20
643.5
 30
0.0
  0
VERTEX
  8
0
 10
585.5
 20
642.5
 30
0.0
  0
VERTEX
  8
0
 10
585.5
 20
641.5
 30
0.0
  0
VERTEX
  8
0
 10
585.5
 20
640.5
 30
0.0
  0
VERTEX
  8
0
 10
585.5
 20
639.5
 30
0.0
  0
VERTEX
  8
0
 10
585.5
 20
638.5
 30
0.0
  0
VERTEX
  8
0
 10
585.5
 20
637.5
 30
0.0
  0
VERTEX
  8
0
 10
585.5
 20
636.5
 30
0.0
  0
VERTEX
  8
0
 10
585.5
 20
635.5
 30
0.0
  0
VERTEX
  8
0
 10
585.5
 20
634.5
 30
0.0
  0
VERTEX
  8
0
 10
585.5
 20
633.5
 30
0.0
  0
VERTEX
  8
0
 10
585.5
 20
632.5
 30
0.0
  0
VERTEX
  8
0
 10
585.5
 20
631.5
 30
0.0
  0
VERTEX
  8
0
 10
585.5
 20
630.5
 30
0.0
  0
VERTEX
  8
0
 10
585.5
 20
629.5
 30
0.0
  0
VERTEX
  8
0
 10
585.5
 20
628.5
 30
0.0
  0
VERTEX
  8
0
 10
585.5
 20
627.5
 30
0.0
  0
VERTEX
  8
0
 10
585.5
 20
626.5
 30
0.0
  0
VERTEX
  8
0
 10
585.5
 20
625.5
 30
0.0
  0
VERTEX
  8
0
 10
585.5
 20
624.5
 30
0.0
  0
VERTEX
  8
0
 10
585.5
 20
623.5
 30
0.0
  0
VERTEX
  8
0
 10
585.5
 20
622.5
 30
0.0
  0
VERTEX
  8
0
 10
585.5
 20
621.5
 30
0.0
  0
VERTEX
  8
0
 10
585.5
 20
620.5
 30
0.0
  0
VERTEX
  8
0
 10
585.5
 20
619.5
 30
0.0
  0
VERTEX
  8
0
 10
585.5
 20
618.5
 30
0.0
  0
VERTEX
  8
0
 10
585.5
 20
617.5
 30
0.0
  0
VERTEX
  8
0
 10
585.5
 20
616.5
 30
0.0
  0
VERTEX
  8
0
 10
585.5
 20
615.5
 30
0.0
  0
VERTEX
  8
0
 10
585.5
 20
614.5
 30
0.0
  0
VERTEX
  8
0
 10
585.5
 20
613.5
 30
0.0
  0
VERTEX
  8
0
 10
585.5
 20
612.5
 30
0.0
  0
VERTEX
  8
0
 10
585.5
 20
611.5
 30
0.0
  0
VERTEX
  8
0
 10
585.5
 20
610.5
 30
0.0
  0
VERTEX
  8
0
 10
585.5
 20
609.5
 30
0.0
  0
VERTEX
  8
0
 10
585.5
 20
608.5
 30
0.0
  0
VERTEX
  8
0
 10
585.5
 20
607.5
 30
0.0
  0
VERTEX
  8
0
 10
585.5
 20
606.5
 30
0.0
  0
VERTEX
  8
0
 10
585.5
 20
605.5
 30
0.0
  0
VERTEX
  8
0
 10
585.5
 20
604.5
 30
0.0
  0
VERTEX
  8
0
 10
585.5
 20
603.5
 30
0.0
  0
VERTEX
  8
0
 10
585.5
 20
602.5
 30
0.0
  0
VERTEX
  8
0
 10
585.5
 20
601.5
 30
0.0
  0
VERTEX
  8
0
 10
585.5
 20
600.5
 30
0.0
  0
VERTEX
  8
0
 10
585.5
 20
599.5
 30
0.0
  0
VERTEX
  8
0
 10
585.5
 20
598.5
 30
0.0
  0
VERTEX
  8
0
 10
585.5
 20
597.5
 30
0.0
  0
VERTEX
  8
0
 10
585.5
 20
596.5
 30
0.0
  0
VERTEX
  8
0
 10
585.5
 20
595.5
 30
0.0
  0
VERTEX
  8
0
 10
585.5
 20
594.5
 30
0.0
  0
VERTEX
  8
0
 10
585.5
 20
593.5
 30
0.0
  0
VERTEX
  8
0
 10
585.5
 20
592.5
 30
0.0
  0
VERTEX
  8
0
 10
585.5
 20
591.5
 30
0.0
  0
VERTEX
  8
0
 10
585.5
 20
590.5
 30
0.0
  0
VERTEX
  8
0
 10
585.5
 20
589.5
 30
0.0
  0
VERTEX
  8
0
 10
585.5
 20
588.5
 30
0.0
  0
VERTEX
  8
0
 10
585.5
 20
587.5
 30
0.0
  0
VERTEX
  8
0
 10
585.5
 20
586.5
 30
0.0
  0
VERTEX
  8
0
 10
585.5
 20
585.5
 30
0.0
  0
VERTEX
  8
0
 10
585.5
 20
584.5
 30
0.0
  0
VERTEX
  8
0
 10
585.5
 20
583.5
 30
0.0
  0
VERTEX
  8
0
 10
585.5
 20
582.5
 30
0.0
  0
VERTEX
  8
0
 10
585.5
 20
581.5
 30
0.0
  0
VERTEX
  8
0
 10
585.5
 20
580.5
 30
0.0
  0
VERTEX
  8
0
 10
585.5
 20
579.5
 30
0.0
  0
VERTEX
  8
0
 10
585.5
 20
578.5
 30
0.0
  0
VERTEX
  8
0
 10
585.5
 20
577.5
 30
0.0
  0
VERTEX
  8
0
 10
585.5
 20
576.5
 30
0.0
  0
VERTEX
  8
0
 10
585.5
 20
575.5
 30
0.0
  0
VERTEX
  8
0
 10
585.5
 20
574.5
 30
0.0
  0
VERTEX
  8
0
 10
585.5
 20
573.5
 30
0.0
  0
VERTEX
  8
0
 10
585.5
 20
572.5
 30
0.0
  0
VERTEX
  8
0
 10
585.5
 20
571.5
 30
0.0
  0
VERTEX
  8
0
 10
585.5
 20
570.5
 30
0.0
  0
VERTEX
  8
0
 10
585.5
 20
569.5
 30
0.0
  0
VERTEX
  8
0
 10
585.5
 20
568.5
 30
0.0
  0
VERTEX
  8
0
 10
585.5
 20
567.5
 30
0.0
  0
VERTEX
  8
0
 10
585.5
 20
566.5
 30
0.0
  0
VERTEX
  8
0
 10
585.5
 20
565.5
 30
0.0
  0
VERTEX
  8
0
 10
585.5
 20
564.5
 30
0.0
  0
VERTEX
  8
0
 10
585.5
 20
563.5
 30
0.0
  0
VERTEX
  8
0
 10
585.5
 20
562.5
 30
0.0
  0
VERTEX
  8
0
 10
585.5
 20
561.5
 30
0.0
  0
VERTEX
  8
0
 10
585.5
 20
560.5
 30
0.0
  0
VERTEX
  8
0
 10
585.5
 20
559.5
 30
0.0
  0
VERTEX
  8
0
 10
585.5
 20
558.5
 30
0.0
  0
VERTEX
  8
0
 10
585.5
 20
557.5
 30
0.0
  0
VERTEX
  8
0
 10
585.5
 20
556.5
 30
0.0
  0
VERTEX
  8
0
 10
585.5
 20
555.5
 30
0.0
  0
VERTEX
  8
0
 10
585.5
 20
554.5
 30
0.0
  0
VERTEX
  8
0
 10
585.5
 20
553.5
 30
0.0
  0
VERTEX
  8
0
 10
585.5
 20
552.5
 30
0.0
  0
VERTEX
  8
0
 10
585.5
 20
551.5
 30
0.0
  0
VERTEX
  8
0
 10
585.5
 20
550.5
 30
0.0
  0
VERTEX
  8
0
 10
585.5
 20
549.5
 30
0.0
  0
VERTEX
  8
0
 10
585.5
 20
548.5
 30
0.0
  0
VERTEX
  8
0
 10
585.5
 20
547.5
 30
0.0
  0
VERTEX
  8
0
 10
585.5
 20
546.5
 30
0.0
  0
VERTEX
  8
0
 10
585.5
 20
545.5
 30
0.0
  0
VERTEX
  8
0
 10
585.5
 20
544.5
 30
0.0
  0
VERTEX
  8
0
 10
585.5
 20
543.5
 30
0.0
  0
VERTEX
  8
0
 10
585.5
 20
542.5
 30
0.0
  0
VERTEX
  8
0
 10
585.5
 20
541.5
 30
0.0
  0
VERTEX
  8
0
 10
585.5
 20
540.5
 30
0.0
  0
VERTEX
  8
0
 10
585.5
 20
539.5
 30
0.0
  0
VERTEX
  8
0
 10
585.5
 20
538.5
 30
0.0
  0
VERTEX
  8
0
 10
585.5
 20
537.5
 30
0.0
  0
VERTEX
  8
0
 10
585.5
 20
536.5
 30
0.0
  0
VERTEX
  8
0
 10
585.5
 20
535.5
 30
0.0
  0
VERTEX
  8
0
 10
586.5
 20
535.5
 30
0.0
  0
VERTEX
  8
0
 10
587.5
 20
535.5
 30
0.0
  0
VERTEX
  8
0
 10
588.5
 20
535.5
 30
0.0
  0
VERTEX
  8
0
 10
589.5
 20
535.5
 30
0.0
  0
VERTEX
  8
0
 10
590.5
 20
535.5
 30
0.0
  0
VERTEX
  8
0
 10
591.5
 20
535.5
 30
0.0
  0
VERTEX
  8
0
 10
592.5
 20
535.5
 30
0.0
  0
VERTEX
  8
0
 10
593.5
 20
535.5
 30
0.0
  0
VERTEX
  8
0
 10
594.5
 20
535.5
 30
0.0
  0
VERTEX
  8
0
 10
595.5
 20
535.5
 30
0.0
  0
VERTEX
  8
0
 10
596.5
 20
535.5
 30
0.0
  0
VERTEX
  8
0
 10
597.5
 20
535.5
 30
0.0
  0
VERTEX
  8
0
 10
598.5
 20
535.5
 30
0.0
  0
VERTEX
  8
0
 10
599.5
 20
535.5
 30
0.0
  0
VERTEX
  8
0
 10
600.5
 20
535.5
 30
0.0
  0
VERTEX
  8
0
 10
601.5
 20
535.5
 30
0.0
  0
VERTEX
  8
0
 10
602.5
 20
535.5
 30
0.0
  0
VERTEX
  8
0
 10
603.5
 20
535.5
 30
0.0
  0
VERTEX
  8
0
 10
604.5
 20
535.5
 30
0.0
  0
VERTEX
  8
0
 10
605.5
 20
535.5
 30
0.0
  0
VERTEX
  8
0
 10
606.5
 20
535.5
 30
0.0
  0
VERTEX
  8
0
 10
607.5
 20
535.5
 30
0.0
  0
VERTEX
  8
0
 10
608.5
 20
535.5
 30
0.0
  0
VERTEX
  8
0
 10
609.5
 20
535.5
 30
0.0
  0
VERTEX
  8
0
 10
610.5
 20
535.5
 30
0.0
  0
VERTEX
  8
0
 10
611.5
 20
535.5
 30
0.0
  0
VERTEX
  8
0
 10
612.5
 20
535.5
 30
0.0
  0
VERTEX
  8
0
 10
613.5
 20
535.5
 30
0.0
  0
VERTEX
  8
0
 10
614.5
 20
535.5
 30
0.0
  0
VERTEX
  8
0
 10
615.5
 20
535.5
 30
0.0
  0
VERTEX
  8
0
 10
616.5
 20
535.5
 30
0.0
  0
VERTEX
  8
0
 10
617.5
 20
535.5
 30
0.0
  0
VERTEX
  8
0
 10
618.5
 20
535.5
 30
0.0
  0
VERTEX
  8
0
 10
619.5
 20
535.5
 30
0.0
  0
VERTEX
  8
0
 10
620.5
 20
535.5
 30
0.0
  0
VERTEX
  8
0
 10
621.5
 20
535.5
 30
0.0
  0
VERTEX
  8
0
 10
622.5
 20
535.5
 30
0.0
  0
VERTEX
  8
0
 10
623.5
 20
535.5
 30
0.0
  0
VERTEX
  8
0
 10
624.5
 20
535.5
 30
0.0
  0
VERTEX
  8
0
 10
625.5
 20
535.5
 30
0.0
  0
VERTEX
  8
0
 10
626.5
 20
535.5
 30
0.0
  0
VERTEX
  8
0
 10
627.5
 20
535.5
 30
0.0
  0
VERTEX
  8
0
 10
628.5
 20
535.5
 30
0.0
  0
VERTEX
  8
0
 10
629.5
 20
535.5
 30
0.0
  0
VERTEX
  8
0
 10
630.5
 20
535.5
 30
0.0
  0
VERTEX
  8
0
 10
631.5
 20
535.5
 30
0.0
  0
VERTEX
  8
0
 10
632.5
 20
535.5
 30
0.0
  0
VERTEX
  8
0
 10
633.5
 20
535.5
 30
0.0
  0
VERTEX
  8
0
 10
634.5
 20
535.5
 30
0.0
  0
VERTEX
  8
0
 10
635.5
 20
535.5
 30
0.0
  0
VERTEX
  8
0
 10
636.5
 20
535.5
 30
0.0
  0
VERTEX
  8
0
 10
637.5
 20
535.5
 30
0.0
  0
VERTEX
  8
0
 10
638.5
 20
535.5
 30
0.0
  0
VERTEX
  8
0
 10
639.5
 20
535.5
 30
0.0
  0
VERTEX
  8
0
 10
640.5
 20
535.5
 30
0.0
  0
VERTEX
  8
0
 10
641.5
 20
535.5
 30
0.0
  0
VERTEX
  8
0
 10
642.5
 20
535.5
 30
0.0
  0
VERTEX
  8
0
 10
643.5
 20
535.5
 30
0.0
  0
VERTEX
  8
0
 10
644.5
 20
535.5
 30
0.0
  0
VERTEX
  8
0
 10
645.5
 20
535.5
 30
0.0
  0
VERTEX
  8
0
 10
646.5
 20
535.5
 30
0.0
  0
VERTEX
  8
0
 10
647.5
 20
535.5
 30
0.0
  0
VERTEX
  8
0
 10
648.5
 20
535.5
 30
0.0
  0
VERTEX
  8
0
 10
649.5
 20
535.5
 30
0.0
  0
VERTEX
  8
0
 10
650.5
 20
535.5
 30
0.0
  0
VERTEX
  8
0
 10
651.5
 20
535.5
 30
0.0
  0
VERTEX
  8
0
 10
652.5
 20
535.5
 30
0.0
  0
VERTEX
  8
0
 10
653.5
 20
535.5
 30
0.0
  0
VERTEX
  8
0
 10
654.5
 20
535.5
 30
0.0
  0
VERTEX
  8
0
 10
655.5
 20
535.5
 30
0.0
  0
VERTEX
  8
0
 10
656.5
 20
535.5
 30
0.0
  0
VERTEX
  8
0
 10
657.5
 20
535.5
 30
0.0
  0
VERTEX
  8
0
 10
658.5
 20
535.5
 30
0.0
  0
VERTEX
  8
0
 10
659.5
 20
535.5
 30
0.0
  0
VERTEX
  8
0
 10
660.5
 20
535.5
 30
0.0
  0
VERTEX
  8
0
 10
661.5
 20
535.5
 30
0.0
  0
VERTEX
  8
0
 10
662.5
 20
535.5
 30
0.0
  0
VERTEX
  8
0
 10
663.5
 20
535.5
 30
0.0
  0
VERTEX
  8
0
 10
664.5
 20
535.5
 30
0.0
  0
VERTEX
  8
0
 10
665.5
 20
535.5
 30
0.0
  0
VERTEX
  8
0
 10
666.5
 20
535.5
 30
0.0
  0
VERTEX
  8
0
 10
667.5
 20
535.5
 30
0.0
  0
VERTEX
  8
0
 10
668.5
 20
535.5
 30
0.0
  0
VERTEX
  8
0
 10
669.5
 20
535.5
 30
0.0
  0
VERTEX
  8
0
 10
670.5
 20
535.5
 30
0.0
  0
VERTEX
  8
0
 10
671.5
 20
535.5
 30
0.0
  0
VERTEX
  8
0
 10
672.5
 20
535.5
 30
0.0
  0
VERTEX
  8
0
 10
673.5
 20
535.5
 30
0.0
  0
VERTEX
  8
0
 10
674.5
 20
535.5
 30
0.0
  0
VERTEX
  8
0
 10
675.5
 20
535.5
 30
0.0
  0
VERTEX
  8
0
 10
676.5
 20
535.5
 30
0.0
  0
VERTEX
  8
0
 10
677.5
 20
535.5
 30
0.0
  0
VERTEX
  8
0
 10
678.5
 20
535.5
 30
0.0
  0
VERTEX
  8
0
 10
679.5
 20
535.5
 30
0.0
  0
VERTEX
  8
0
 10
680.5
 20
535.5
 30
0.0
  0
VERTEX
  8
0
 10
681.5
 20
535.5
 30
0.0
  0
VERTEX
  8
0
 10
682.5
 20
535.5
 30
0.0
  0
VERTEX
  8
0
 10
683.5
 20
535.5
 30
0.0
  0
VERTEX
  8
0
 10
684.5
 20
535.5
 30
0.0
  0
VERTEX
  8
0
 10
685.5
 20
535.5
 30
0.0
  0
VERTEX
  8
0
 10
686.5
 20
535.5
 30
0.0
  0
VERTEX
  8
0
 10
687.5
 20
535.5
 30
0.0
  0
VERTEX
  8
0
 10
688.5
 20
535.5
 30
0.0
  0
VERTEX
  8
0
 10
689.5
 20
535.5
 30
0.0
  0
VERTEX
  8
0
 10
690.5
 20
535.5
 30
0.0
  0
VERTEX
  8
0
 10
691.5
 20
535.5
 30
0.0
  0
VERTEX
  8
0
 10
692.5
 20
535.5
 30
0.0
  0
VERTEX
  8
0
 10
693.5
 20
535.5
 30
0.0
  0
SEQEND
  0
ENDSEC
  0
SECTION
  2
OBJECTS
  0
ENDSEC
  0
EOF
